<svg width="229" height="92" xmlns="http://www.w3.org/2000/svg" viewBox="0 0 229.4 92"><path d="M103.3,5.1h10.8a14.1,14.1,0,0,1,7.3,1.6,5.2,5.2,0,0,1,2.4,4.5,6.9,6.9,0,0,1-.5,2.4,6,6,0,0,1-1.7,2.3,8,8,0,0,1-3.2,1.6,17.8,17.8,0,0,1-5.1.6H110v-.7h3a4.8,4.8,0,0,0,3.1-.8,4.1,4.1,0,0,0,1.5-2.1,11.9,11.9,0,0,0,.4-2.9,8.5,8.5,0,0,0-1-4.3,3.8,3.8,0,0,0-3.4-1.5c-.9,0-1.5.2-1.7.6a4.5,4.5,0,0,0-.4,2.4V26.2a10.3,10.3,0,0,0,.1,1.9c.2.4.4.7.8.8l1.7.3v.7H103.3v-.7l1.6-.3a1.1,1.1,0,0,0,.8-.8,9.2,9.2,0,0,0,.2-1.9V8.8a8.4,8.4,0,0,0-.2-1.9,1.1,1.1,0,0,0-.8-.8,3.5,3.5,0,0,0-1.6-.3Zm6.6,12.4,2.6.2,1.9.2h1.5c2.2.2,3.7.6,4.7,1.4a4.7,4.7,0,0,1,2,3.2l.8,3.6a8.8,8.8,0,0,0,.7,2,1.2,1.2,0,0,0,1,.5l.8-.2.6-.6.5.4a4.9,4.9,0,0,1-2,1.6,7.2,7.2,0,0,1-2.7.5,5.9,5.9,0,0,1-3.1-.8,4.8,4.8,0,0,1-1.6-3l-.6-3.5c-.2-1-.4-1.8-.6-2.6a4,4,0,0,0-1-1.7,1.9,1.9,0,0,0-1.7-.7H110Z" transform="translate(0 -2.2)"/><path d="M136.2,11.3a6.5,6.5,0,0,1,4.8,1.8c1.2,1.2,1.7,3.2,1.7,6H131.2v-.7h7.1a11.3,11.3,0,0,0-.2-3.2,6.9,6.9,0,0,0-.7-2.3A1.7,1.7,0,0,0,136,12a2.4,2.4,0,0,0-2.1,1.6,12.9,12.9,0,0,0-1.1,5.1v2a8.8,8.8,0,0,0,.7,3.9,4.4,4.4,0,0,0,1.7,2.2,3.5,3.5,0,0,0,2.1.7,6.8,6.8,0,0,0,2.3-.5,5.6,5.6,0,0,0,2.3-2.3l.7.2a7.3,7.3,0,0,1-1.4,2.6,7.8,7.8,0,0,1-2.3,2.1,6.7,6.7,0,0,1-3.3.8,9.3,9.3,0,0,1-4.2-1,7.3,7.3,0,0,1-2.9-3.1,11.7,11.7,0,0,1-1-5.3,12.7,12.7,0,0,1,1.1-5.4,7.2,7.2,0,0,1,3-3.2A9.4,9.4,0,0,1,136.2,11.3Z" transform="translate(0 -2.2)"/><path d="M151.7,11.3a7.1,7.1,0,0,1,2.6.4,8.4,8.4,0,0,1,1.6.7c.8.5,1.3.2,1.4-1.1h.8a17.7,17.7,0,0,0-.1,2.4c-.1,1-.1,2.2-.1,3.8h-.7a8.4,8.4,0,0,0-.7-2.6,4.8,4.8,0,0,0-1.4-2,3.2,3.2,0,0,0-2.4-.8,2.5,2.5,0,0,0-1.7.6,1.8,1.8,0,0,0-.7,1.6,3.3,3.3,0,0,0,.6,1.9,12.9,12.9,0,0,0,1.7,1.5l2,1.5a15.6,15.6,0,0,1,3,2.6,4.9,4.9,0,0,1,1.2,3.4,4.2,4.2,0,0,1-.9,2.7,5.5,5.5,0,0,1-2.4,1.8,7.2,7.2,0,0,1-3.3.7l-1.9-.2a5.9,5.9,0,0,1-1.4-.6l-.9-.4-.7-.3q-.3-.1-.6.3a1.9,1.9,0,0,0-.4.9h-.8c.1-.7.1-1.6.2-2.7V23.1h.7a15.4,15.4,0,0,0,.8,3.4,7.6,7.6,0,0,0,1.5,2.3,4.1,4.1,0,0,0,2.4.8,2.5,2.5,0,0,0,1.7-.6,2.3,2.3,0,0,0,.8-1.9,3.5,3.5,0,0,0-1-2.6l-2.5-2.2-2.2-1.8a9.5,9.5,0,0,1-1.6-1.9,5.1,5.1,0,0,1-.6-2.5,4.5,4.5,0,0,1,.8-2.6,6.2,6.2,0,0,1,2.2-1.7A10.5,10.5,0,0,1,151.7,11.3Z" transform="translate(0 -2.2)"/><path d="M178.4,11.4V26.1a3.7,3.7,0,0,0,.5,2.3,1.9,1.9,0,0,0,1.7.8v.7h-4.9l-2.4.4V27.1a4.7,4.7,0,0,1-2.3,2.5,7.3,7.3,0,0,1-3.3.8,5.5,5.5,0,0,1-2.4-.4,3.9,3.9,0,0,1-1.4-1,3.9,3.9,0,0,1-.9-1.7,21.6,21.6,0,0,1-.2-2.8V15.6a4.6,4.6,0,0,0-.5-2.3,1.9,1.9,0,0,0-1.7-.8v-.7h4.9l2.3-.4V25.9a6.1,6.1,0,0,0,.2,1.5,2,2,0,0,0,.6,1.1,2.5,2.5,0,0,0,1.3.3,3,3,0,0,0,2.4-1.1,4.3,4.3,0,0,0,1-2.9V15.6a4.7,4.7,0,0,0-.4-2.3,2.1,2.1,0,0,0-1.8-.8v-.7H176Z" transform="translate(0 -2.2)"/><path d="M194.9,11.3a5.3,5.3,0,0,1,2.3.4,3.1,3.1,0,0,1,1.5,1,3,3,0,0,1,.8,1.7,10.9,10.9,0,0,1,.3,2.8v9.4a3.1,3.1,0,0,0,.4,2,1.8,1.8,0,0,0,1.6.6v.7H193v-.7a1.6,1.6,0,0,0,1.4-.6,4.3,4.3,0,0,0,.3-2V15.7a7.6,7.6,0,0,0-.1-1.5,2.1,2.1,0,0,0-.6-1,1.7,1.7,0,0,0-1.2-.4,2.5,2.5,0,0,0-1.6.6,2.9,2.9,0,0,0-1.3,1.4,4.6,4.6,0,0,0-.5,2.1v9.7a4,4,0,0,0,.4,2,1.5,1.5,0,0,0,1.3.6v.7h-8.9v-.7a2.1,2.1,0,0,0,1.7-.6,3,3,0,0,0,.5-2v-11a4.6,4.6,0,0,0-.5-2.3,1.9,1.9,0,0,0-1.7-.8v-.7h4.9l2.3-.4v3.2a5.6,5.6,0,0,1,2.3-2.5A6.9,6.9,0,0,1,194.9,11.3Zm10.5,0a5.5,5.5,0,0,1,2.4.4,2.4,2.4,0,0,1,1.4,1,3.9,3.9,0,0,1,.9,1.7,20.3,20.3,0,0,1,.2,2.8v9.4a3,3,0,0,0,.5,2,2.1,2.1,0,0,0,1.7.6v.7h-8.9v-.7a1.5,1.5,0,0,0,1.3-.6,4,4,0,0,0,.4-2V15.7a7.7,7.7,0,0,0-.2-1.5,2.1,2.1,0,0,0-.6-1,2.2,2.2,0,0,0-1.3-.4,2.8,2.8,0,0,0-2.4,1.3,4.2,4.2,0,0,0-1.1,2.9V14.9a5.2,5.2,0,0,1,2.5-2.9A7.2,7.2,0,0,1,205.4,11.3Z" transform="translate(0 -2.2)"/><path d="M222.9,11.3a6.5,6.5,0,0,1,4.8,1.8c1.2,1.2,1.7,3.2,1.7,6H217.9v-.7H225a11.3,11.3,0,0,0-.2-3.2,6.9,6.9,0,0,0-.7-2.3,1.7,1.7,0,0,0-1.4-.9,2.4,2.4,0,0,0-2.1,1.6,12.9,12.9,0,0,0-1.1,5.1v2a8.8,8.8,0,0,0,.7,3.9,4.4,4.4,0,0,0,1.7,2.2,3.5,3.5,0,0,0,2.1.7,6.8,6.8,0,0,0,2.3-.5,5.6,5.6,0,0,0,2.3-2.3l.7.2a9.4,9.4,0,0,1-1.4,2.6,7.8,7.8,0,0,1-2.3,2.1,6.7,6.7,0,0,1-3.3.8,9.3,9.3,0,0,1-4.2-1,7.3,7.3,0,0,1-2.9-3.1,11.7,11.7,0,0,1-1-5.3,12.7,12.7,0,0,1,1.1-5.4,7.2,7.2,0,0,1,3-3.2A9.4,9.4,0,0,1,222.9,11.3Z" transform="translate(0 -2.2)"/><path d="M103.3,47.1h10.8a11.5,11.5,0,0,1,6.5,1.6,4.6,4.6,0,0,1,2.1,3.9,4.5,4.5,0,0,1-.7,2.5,7.2,7.2,0,0,1-2.3,2.3,11.6,11.6,0,0,1-4,1.4h0a11.7,11.7,0,0,1,5.2,1.2,6.4,6.4,0,0,1,2.8,2.2,4.8,4.8,0,0,1,.8,2.8,5.5,5.5,0,0,1-2.5,5,12.2,12.2,0,0,1-7.1,1.8H103.3v-.7l1.6-.3a1.1,1.1,0,0,0,.8-.8,9.2,9.2,0,0,0,.2-1.9V50.8a8.4,8.4,0,0,0-.2-1.9,1.1,1.1,0,0,0-.8-.8,3.5,3.5,0,0,0-1.6-.3Zm10.3.7c-.9,0-1.5.2-1.7.6a4.5,4.5,0,0,0-.4,2.4V68.2a3.8,3.8,0,0,0,.4,2.3,2.5,2.5,0,0,0,2,.6,4.2,4.2,0,0,0,3.7-1.6,8.3,8.3,0,0,0,1.1-4.5,6,6,0,0,0-1.3-4.2q-1.4-1.5-4.5-1.5H110v-.6h3a3.3,3.3,0,0,0,2.5-.8,3.7,3.7,0,0,0,1.2-2.1,11.8,11.8,0,0,0,.4-2.8,8.1,8.1,0,0,0-.8-3.9A3,3,0,0,0,113.6,47.8Z" transform="translate(0 -2.2)"/><path d="M143.9,53.4V68.1a3.7,3.7,0,0,0,.5,2.3,1.9,1.9,0,0,0,1.7.8v.7h-4.9l-2.4.4V69.1a4.7,4.7,0,0,1-2.3,2.5,7.3,7.3,0,0,1-3.3.8,5.5,5.5,0,0,1-2.4-.4,3.9,3.9,0,0,1-1.4-1,3.9,3.9,0,0,1-.9-1.7,21.6,21.6,0,0,1-.2-2.8V57.6a4.6,4.6,0,0,0-.5-2.3,1.9,1.9,0,0,0-1.7-.8v-.7H131l2.3-.4V67.9a6.1,6.1,0,0,0,.2,1.5,2,2,0,0,0,.6,1.1,2.3,2.3,0,0,0,1.3.3,3,3,0,0,0,2.4-1.1,4.3,4.3,0,0,0,1-2.9V57.6a4.7,4.7,0,0,0-.4-2.3,2.1,2.1,0,0,0-1.8-.8v-.7h4.9Z" transform="translate(0 -2.2)"/><path d="M154.9,53.4V68.6a3,3,0,0,0,.5,2,2.4,2.4,0,0,0,1.8.6v.7h-9.6v-.7a2.3,2.3,0,0,0,1.8-.6,3,3,0,0,0,.5-2v-11a4.6,4.6,0,0,0-.5-2.3,1.9,1.9,0,0,0-1.8-.8v-.7h5Zm-2.7-8.6a3.2,3.2,0,0,1,2.3.7,2.4,2.4,0,0,1,.9,2,2.2,2.2,0,0,1-.9,1.9,3.7,3.7,0,0,1-4.6,0,2.2,2.2,0,0,1-.9-1.9,2.4,2.4,0,0,1,.9-2A3.2,3.2,0,0,1,152.2,44.8Z" transform="translate(0 -2.2)"/><path d="M165.8,44.5V68.6a3,3,0,0,0,.5,2,2.3,2.3,0,0,0,1.8.6v.7h-9.6v-.7a2.4,2.4,0,0,0,1.8-.6,3,3,0,0,0,.5-2V48.7a4.4,4.4,0,0,0-.5-2.3,1.9,1.9,0,0,0-1.8-.8v-.7h4.9Z" transform="translate(0 -2.2)"/><path d="M177.5,53.3a7.6,7.6,0,0,1,2.7.5,4.4,4.4,0,0,1,1.9,1.7l-.5.4a2.3,2.3,0,0,0-1.2-1.2,2.9,2.9,0,0,0-1.6-.4c-1.2,0-2.1.7-2.8,2.1s-1,3.5-1,6.4a20.9,20.9,0,0,0,.4,4.8,5.8,5.8,0,0,0,1.1,2.5,2.5,2.5,0,0,0,1.8.8,2.6,2.6,0,0,0,2.1-1,3.6,3.6,0,0,0,1-2.5l.2,1.2a5.6,5.6,0,0,1-1.7,2.8,4.5,4.5,0,0,1-3.1,1,7.9,7.9,0,0,1-3.7-1,7.5,7.5,0,0,1-2.5-3.2,13.8,13.8,0,0,1-.9-5.4,11.7,11.7,0,0,1,1-5.3,7.1,7.1,0,0,1,2.8-3.1A7.7,7.7,0,0,1,177.5,53.3Zm8.9-8.8V68a4.8,4.8,0,0,0,.5,2.4c.3.5.9.7,1.8.7v.8l-2.2-.2-2.8.2a16,16,0,0,0-2.3.3V48.7a4.4,4.4,0,0,0-.5-2.3,1.9,1.9,0,0,0-1.8-.8v-.7H184Z" transform="translate(0 -2.2)"/><path d="M199.2,53.3a6.5,6.5,0,0,1,4.8,1.8c1.2,1.2,1.7,3.2,1.7,6H194.2v-.7h7.1a11.3,11.3,0,0,0-.2-3.2,6.9,6.9,0,0,0-.7-2.3A1.7,1.7,0,0,0,199,54a2.4,2.4,0,0,0-2.1,1.6,12.9,12.9,0,0,0-1.1,5.1v2a8.8,8.8,0,0,0,.7,3.9,4.4,4.4,0,0,0,1.7,2.2,3.5,3.5,0,0,0,2.1.7,6.8,6.8,0,0,0,2.3-.5,5.6,5.6,0,0,0,2.3-2.3l.7.2a7.3,7.3,0,0,1-1.4,2.6,7.8,7.8,0,0,1-2.3,2.1,6.7,6.7,0,0,1-3.3.8,9.3,9.3,0,0,1-4.2-1,7.3,7.3,0,0,1-2.9-3.1,11.7,11.7,0,0,1-1-5.3,12.7,12.7,0,0,1,1.1-5.4,7.2,7.2,0,0,1,3-3.2A9.4,9.4,0,0,1,199.2,53.3Z" transform="translate(0 -2.2)"/><path d="M219.6,53.3a3,3,0,0,1,1.8.5,3.2,3.2,0,0,1,1.1,1.2,4,4,0,0,1,.3,1.5,2.9,2.9,0,0,1-.8,2.1,2.3,2.3,0,0,1-1.9.9,2.5,2.5,0,0,1-1.9-.6,2.2,2.2,0,0,1-.7-1.7,2.7,2.7,0,0,1,.4-1.6,5.7,5.7,0,0,1,1.1-1.1,1.7,1.7,0,0,0-1,0,2.9,2.9,0,0,0-1.6.9,3.9,3.9,0,0,0-1.1,1.7,4.5,4.5,0,0,0-.5,1.9v9.3a2.6,2.6,0,0,0,.9,2.3,3.8,3.8,0,0,0,2.4.6v.7H207.6v-.7a2.1,2.1,0,0,0,1.7-.6,3,3,0,0,0,.5-2v-11a4.6,4.6,0,0,0-.5-2.3,1.9,1.9,0,0,0-1.7-.8v-.7h4.9l2.3-.4v3.3a7.1,7.1,0,0,1,1.2-1.8,4.8,4.8,0,0,1,1.6-1.2A6.5,6.5,0,0,1,219.6,53.3Z" transform="translate(0 -2.2)"/><path d="M67,6.2v75H4V6.2H67m4-4H0v83H71V2.2Z" transform="translate(0 -2.2)"/><line x1="12" y1="22" x2="54" y2="22" fill="none" stroke="#000" stroke-miterlimit="10" stroke-width="4"/><line x1="12" y1="42" x2="36" y2="42" fill="none" stroke="#000" stroke-miterlimit="10" stroke-width="4"/><path d="M84.5,74.1a27.3,27.3,0,0,0,.5-5l-5-1.9a24.4,24.4,0,0,0-.7-3.9l4.1-3.1a26.5,26.5,0,0,0-2.3-4.8l-5.2,1.1a19.5,19.5,0,0,0-2.4-2.6l1.8-5a26,26,0,0,0-4.5-2.8l-3.7,3.6-3.4-1-1.2-5.2-3.2-.2H57.2l-1.1,5.1a23.4,23.4,0,0,0-3.8.9l-3.8-3.7a30.2,30.2,0,0,0-4.3,2.5l1.7,4.9a23.4,23.4,0,0,0-3.1,3.2l-5.2-1.1a34.8,34.8,0,0,0-2.2,4.3l4.1,3.1a27.7,27.7,0,0,0-1,5l-4.9,1.9a21.4,21.4,0,0,0,.5,4.5l5.1.4a22,22,0,0,0,2.2,5.2l-3.1,4.3,2.8,3.3,4.6-2.5a18,18,0,0,0,4.9,3.2l-.3,5.2a19.1,19.1,0,0,0,4.1,1.1L57,89.7h2.3a19.5,19.5,0,0,0,3.4-.3L65.2,94a18.8,18.8,0,0,0,4.2-1.4l-.3-5.3a17.9,17.9,0,0,0,4.2-3l4.6,2.4A21.6,21.6,0,0,0,80.8,83l-3.1-4.3a19.2,19.2,0,0,0,1.6-4.2ZM59.3,76a7.2,7.2,0,0,1-7.2-7.2,7.2,7.2,0,1,1,14.4,0A7.2,7.2,0,0,1,59.3,76Z" transform="translate(0 -2.2)"/></svg>